# xmcd CD Database Entry
#
# Track frame offsets:
# 150
# 14175
# 28160
# 45840
# 60300
# 74062
# 89757
# 103100
# 117127
# 133087
# 150790
# 162700
# 179412
# 195022
# 223100
# 235610
#
# Disc length: 3527 seconds
#
# Revision: 2
# Processed by: cddbd v1.4b41PL1 Copyright (c) Steve Scherf et al.
# Submitted via: tcd 2.0b
#
DISCID=db0dc510
DTITLE=PROSECTURA
DYEAR=1900
DGENRE=
TTITLE0=akkor inkabb uthenger!
TTITLE1=tulelesi szabalyzat
TTITLE2=a merenylo (aki heren lo)
TTITLE3=kell most valami
TTITLE4=k. béla egy penteki napja
TTITLE5=6. sáv
TTITLE6=7. sáv
TTITLE7=8. sáv
TTITLE8=9. sáv
TTITLE9=10. sáv
TTITLE10=11. sáv
TTITLE11=12. sáv
TTITLE12=13. sáv
TTITLE13=14. sáv
TTITLE14=15. sáv
TTITLE15=16. sáv
EXTD=
EXTT0=
EXTT1=
EXTT2=
EXTT3=
EXTT4=
EXTT5=
EXTT6=
EXTT7=
EXTT8=
EXTT9=
EXTT10=
EXTT11=
EXTT12=
EXTT13=
EXTT14=
EXTT15=
PLAYORDER=
